<mxfile host="app.diagrams.net" modified="2023-05-03T13:53:15.528Z" agent="Mozilla/5.0 (Windows NT 10.0; Win64; x64) AppleWebKit/537.36 (KHTML, like Gecko) Chrome/112.0.0.0 Safari/537.36" etag="HT8lYx2xzMTIehh6VZQk" version="21.1.0" type="github">
  <diagram name="Page-1" id="c4acf3e9-155e-7222-9cf6-157b1a14988f">
    <mxGraphModel dx="880" dy="1584" grid="1" gridSize="10" guides="1" tooltips="1" connect="1" arrows="1" fold="1" page="1" pageScale="1" pageWidth="850" pageHeight="1100" background="none" math="0" shadow="0">
      <root>
        <mxCell id="0" />
        <mxCell id="1" parent="0" />
        <mxCell id="17acba5748e5396b-1" value="tic-tac-toe" style="shape=umlFrame;whiteSpace=wrap;html=1;rounded=0;shadow=0;comic=0;labelBackgroundColor=none;strokeWidth=1;fontFamily=Verdana;fontSize=10;align=center;" parent="1" vertex="1">
          <mxGeometry x="25" y="-480" width="975" height="1240" as="geometry" />
        </mxCell>
        <mxCell id="hpXlK9H8_quA6gjHTxtj-22" value="&lt;b&gt;&lt;i style=&quot;border-color: var(--border-color); font-family: Helvetica; font-size: 12px;&quot;&gt;&lt;span style=&quot;border-color: var(--border-color);&quot;&gt;&amp;lt;&amp;lt;Enum&amp;gt;&amp;gt;&lt;/span&gt;&lt;/i&gt;&lt;br style=&quot;border-color: var(--border-color); font-family: Helvetica; font-size: 12px;&quot;&gt;&lt;span style=&quot;border-color: var(--border-color); font-family: Helvetica; font-size: 12px;&quot;&gt;StatusGame&amp;lt;&amp;lt;String&amp;gt;&amp;gt;&lt;/span&gt;&lt;/b&gt;" style="swimlane;html=1;fontStyle=0;childLayout=stackLayout;horizontal=1;startSize=40;fillColor=none;horizontalStack=0;resizeParent=1;resizeLast=0;collapsible=1;marginBottom=0;swimlaneFillColor=#ffffff;rounded=0;shadow=0;comic=0;labelBackgroundColor=none;strokeWidth=1;fontFamily=Verdana;fontSize=10;align=center;" vertex="1" parent="1">
          <mxGeometry x="280" y="520" width="200" height="160" as="geometry" />
        </mxCell>
        <mxCell id="hpXlK9H8_quA6gjHTxtj-23" value="+ NotStarted" style="text;html=1;strokeColor=none;fillColor=none;align=left;verticalAlign=top;spacingLeft=4;spacingRight=4;whiteSpace=wrap;overflow=hidden;rotatable=0;points=[[0,0.5],[1,0.5]];portConstraint=eastwest;" vertex="1" parent="hpXlK9H8_quA6gjHTxtj-22">
          <mxGeometry y="40" width="200" height="26" as="geometry" />
        </mxCell>
        <mxCell id="hpXlK9H8_quA6gjHTxtj-24" value="+ Started" style="text;html=1;strokeColor=none;fillColor=none;align=left;verticalAlign=top;spacingLeft=4;spacingRight=4;whiteSpace=wrap;overflow=hidden;rotatable=0;points=[[0,0.5],[1,0.5]];portConstraint=eastwest;" vertex="1" parent="hpXlK9H8_quA6gjHTxtj-22">
          <mxGeometry y="66" width="200" height="26" as="geometry" />
        </mxCell>
        <mxCell id="hpXlK9H8_quA6gjHTxtj-25" value="+ Finished" style="text;html=1;strokeColor=none;fillColor=none;align=left;verticalAlign=top;spacingLeft=4;spacingRight=4;whiteSpace=wrap;overflow=hidden;rotatable=0;points=[[0,0.5],[1,0.5]];portConstraint=eastwest;" vertex="1" parent="hpXlK9H8_quA6gjHTxtj-22">
          <mxGeometry y="92" width="200" height="26" as="geometry" />
        </mxCell>
        <mxCell id="hpXlK9H8_quA6gjHTxtj-26" value="+ Canceled" style="text;html=1;strokeColor=none;fillColor=none;align=left;verticalAlign=top;spacingLeft=4;spacingRight=4;whiteSpace=wrap;overflow=hidden;rotatable=0;points=[[0,0.5],[1,0.5]];portConstraint=eastwest;" vertex="1" parent="hpXlK9H8_quA6gjHTxtj-22">
          <mxGeometry y="118" width="200" height="26" as="geometry" />
        </mxCell>
        <mxCell id="hpXlK9H8_quA6gjHTxtj-27" value="&lt;i style=&quot;border-color: var(--border-color); font-family: Helvetica; font-size: 12px;&quot;&gt;&lt;b style=&quot;border-color: var(--border-color);&quot;&gt;&amp;lt;&amp;lt;Enum&amp;gt;&amp;gt;&lt;/b&gt;&lt;/i&gt;&lt;br style=&quot;border-color: var(--border-color); font-family: Helvetica; font-size: 12px;&quot;&gt;&lt;b style=&quot;border-color: var(--border-color); font-family: Helvetica; font-size: 12px;&quot;&gt;StatusPlayer&amp;lt;&amp;lt;String&amp;gt;&amp;gt;&lt;/b&gt;" style="swimlane;html=1;fontStyle=0;childLayout=stackLayout;horizontal=1;startSize=40;fillColor=none;horizontalStack=0;resizeParent=1;resizeLast=0;collapsible=1;marginBottom=0;swimlaneFillColor=#ffffff;rounded=0;shadow=0;comic=0;labelBackgroundColor=none;strokeWidth=1;fontFamily=Verdana;fontSize=10;align=center;" vertex="1" parent="1">
          <mxGeometry x="40" y="520" width="200" height="120" as="geometry" />
        </mxCell>
        <mxCell id="hpXlK9H8_quA6gjHTxtj-28" value="+ Inactive" style="text;html=1;strokeColor=none;fillColor=none;align=left;verticalAlign=top;spacingLeft=4;spacingRight=4;whiteSpace=wrap;overflow=hidden;rotatable=0;points=[[0,0.5],[1,0.5]];portConstraint=eastwest;" vertex="1" parent="hpXlK9H8_quA6gjHTxtj-27">
          <mxGeometry y="40" width="200" height="26" as="geometry" />
        </mxCell>
        <mxCell id="hpXlK9H8_quA6gjHTxtj-29" value="+ Active" style="text;html=1;strokeColor=none;fillColor=none;align=left;verticalAlign=top;spacingLeft=4;spacingRight=4;whiteSpace=wrap;overflow=hidden;rotatable=0;points=[[0,0.5],[1,0.5]];portConstraint=eastwest;" vertex="1" parent="hpXlK9H8_quA6gjHTxtj-27">
          <mxGeometry y="66" width="200" height="26" as="geometry" />
        </mxCell>
        <mxCell id="hpXlK9H8_quA6gjHTxtj-30" value="+ Block&lt;br&gt;" style="text;html=1;strokeColor=none;fillColor=none;align=left;verticalAlign=top;spacingLeft=4;spacingRight=4;whiteSpace=wrap;overflow=hidden;rotatable=0;points=[[0,0.5],[1,0.5]];portConstraint=eastwest;" vertex="1" parent="hpXlK9H8_quA6gjHTxtj-27">
          <mxGeometry y="92" width="200" height="26" as="geometry" />
        </mxCell>
        <mxCell id="hpXlK9H8_quA6gjHTxtj-32" value="&lt;i style=&quot;border-color: var(--border-color); font-family: Helvetica; font-size: 12px;&quot;&gt;&lt;b style=&quot;border-color: var(--border-color);&quot;&gt;&amp;lt;&amp;lt;Enum&amp;gt;&amp;gt;&lt;/b&gt;&lt;/i&gt;&lt;br style=&quot;border-color: var(--border-color); font-family: Helvetica; font-size: 12px;&quot;&gt;&lt;b style=&quot;border-color: var(--border-color); font-family: Helvetica; font-size: 12px;&quot;&gt;ResultGame&amp;lt;&amp;lt;String&amp;gt;&amp;gt;&lt;/b&gt;" style="swimlane;html=1;fontStyle=0;childLayout=stackLayout;horizontal=1;startSize=40;fillColor=none;horizontalStack=0;resizeParent=1;resizeLast=0;collapsible=1;marginBottom=0;swimlaneFillColor=#ffffff;rounded=0;shadow=0;comic=0;labelBackgroundColor=none;strokeWidth=1;fontFamily=Verdana;fontSize=10;align=center;" vertex="1" parent="1">
          <mxGeometry x="520" y="600" width="200" height="120" as="geometry" />
        </mxCell>
        <mxCell id="hpXlK9H8_quA6gjHTxtj-33" value="+ Player1" style="text;html=1;strokeColor=none;fillColor=none;align=left;verticalAlign=top;spacingLeft=4;spacingRight=4;whiteSpace=wrap;overflow=hidden;rotatable=0;points=[[0,0.5],[1,0.5]];portConstraint=eastwest;" vertex="1" parent="hpXlK9H8_quA6gjHTxtj-32">
          <mxGeometry y="40" width="200" height="26" as="geometry" />
        </mxCell>
        <mxCell id="hpXlK9H8_quA6gjHTxtj-34" value="+ Player2" style="text;html=1;strokeColor=none;fillColor=none;align=left;verticalAlign=top;spacingLeft=4;spacingRight=4;whiteSpace=wrap;overflow=hidden;rotatable=0;points=[[0,0.5],[1,0.5]];portConstraint=eastwest;" vertex="1" parent="hpXlK9H8_quA6gjHTxtj-32">
          <mxGeometry y="66" width="200" height="26" as="geometry" />
        </mxCell>
        <mxCell id="hpXlK9H8_quA6gjHTxtj-35" value="+ Tie" style="text;html=1;strokeColor=none;fillColor=none;align=left;verticalAlign=top;spacingLeft=4;spacingRight=4;whiteSpace=wrap;overflow=hidden;rotatable=0;points=[[0,0.5],[1,0.5]];portConstraint=eastwest;" vertex="1" parent="hpXlK9H8_quA6gjHTxtj-32">
          <mxGeometry y="92" width="200" height="26" as="geometry" />
        </mxCell>
        <mxCell id="hpXlK9H8_quA6gjHTxtj-37" value="Player" style="swimlane;fontStyle=1;align=center;verticalAlign=top;childLayout=stackLayout;horizontal=1;startSize=26;horizontalStack=0;resizeParent=1;resizeParentMax=0;resizeLast=0;collapsible=1;marginBottom=0;whiteSpace=wrap;html=1;" vertex="1" parent="1">
          <mxGeometry x="40" y="-440" width="440" height="600" as="geometry" />
        </mxCell>
        <mxCell id="hpXlK9H8_quA6gjHTxtj-50" value="+ id: int&lt;br/&gt;" style="text;html=1;strokeColor=none;fillColor=none;align=left;verticalAlign=top;spacingLeft=4;spacingRight=4;whiteSpace=wrap;overflow=hidden;rotatable=0;points=[[0,0.5],[1,0.5]];portConstraint=eastwest;" vertex="1" parent="hpXlK9H8_quA6gjHTxtj-37">
          <mxGeometry y="26" width="440" height="26" as="geometry" />
        </mxCell>
        <mxCell id="hpXlK9H8_quA6gjHTxtj-49" value="+ status: StatusPlayer" style="text;html=1;strokeColor=none;fillColor=none;align=left;verticalAlign=top;spacingLeft=4;spacingRight=4;whiteSpace=wrap;overflow=hidden;rotatable=0;points=[[0,0.5],[1,0.5]];portConstraint=eastwest;" vertex="1" parent="hpXlK9H8_quA6gjHTxtj-37">
          <mxGeometry y="52" width="440" height="26" as="geometry" />
        </mxCell>
        <mxCell id="hpXlK9H8_quA6gjHTxtj-51" value="+ name: String&lt;br/&gt;" style="text;html=1;strokeColor=none;fillColor=none;align=left;verticalAlign=top;spacingLeft=4;spacingRight=4;whiteSpace=wrap;overflow=hidden;rotatable=0;points=[[0,0.5],[1,0.5]];portConstraint=eastwest;" vertex="1" parent="hpXlK9H8_quA6gjHTxtj-37">
          <mxGeometry y="78" width="440" height="26" as="geometry" />
        </mxCell>
        <mxCell id="hpXlK9H8_quA6gjHTxtj-52" value="+ nickname: String" style="text;html=1;strokeColor=none;fillColor=none;align=left;verticalAlign=top;spacingLeft=4;spacingRight=4;whiteSpace=wrap;overflow=hidden;rotatable=0;points=[[0,0.5],[1,0.5]];portConstraint=eastwest;" vertex="1" parent="hpXlK9H8_quA6gjHTxtj-37">
          <mxGeometry y="104" width="440" height="26" as="geometry" />
        </mxCell>
        <mxCell id="hpXlK9H8_quA6gjHTxtj-53" value="+ email: String" style="text;html=1;strokeColor=none;fillColor=none;align=left;verticalAlign=top;spacingLeft=4;spacingRight=4;whiteSpace=wrap;overflow=hidden;rotatable=0;points=[[0,0.5],[1,0.5]];portConstraint=eastwest;" vertex="1" parent="hpXlK9H8_quA6gjHTxtj-37">
          <mxGeometry y="130" width="440" height="26" as="geometry" />
        </mxCell>
        <mxCell id="hpXlK9H8_quA6gjHTxtj-54" value="+ password: String" style="text;html=1;strokeColor=none;fillColor=none;align=left;verticalAlign=top;spacingLeft=4;spacingRight=4;whiteSpace=wrap;overflow=hidden;rotatable=0;points=[[0,0.5],[1,0.5]];portConstraint=eastwest;" vertex="1" parent="hpXlK9H8_quA6gjHTxtj-37">
          <mxGeometry y="156" width="440" height="26" as="geometry" />
        </mxCell>
        <mxCell id="hpXlK9H8_quA6gjHTxtj-39" value="" style="line;strokeWidth=1;fillColor=none;align=left;verticalAlign=middle;spacingTop=-1;spacingLeft=3;spacingRight=3;rotatable=0;labelPosition=right;points=[];portConstraint=eastwest;strokeColor=inherit;" vertex="1" parent="hpXlK9H8_quA6gjHTxtj-37">
          <mxGeometry y="182" width="440" height="30" as="geometry" />
        </mxCell>
        <mxCell id="hpXlK9H8_quA6gjHTxtj-56" value="+ Player(id: int, name: String, nickname: String, email: String, password: String)&lt;br/&gt;&lt;span style=&quot;color: rgb(255, 255, 255); font-family: &amp;quot;Söhne Mono&amp;quot;, Monaco, &amp;quot;Andale Mono&amp;quot;, &amp;quot;Ubuntu Mono&amp;quot;, monospace; font-size: 14px; background-color: rgb(0, 0, 0);&quot;&gt;&lt;br/&gt;&lt;/span&gt;" style="text;html=1;strokeColor=none;fillColor=none;align=left;verticalAlign=top;spacingLeft=4;spacingRight=4;whiteSpace=wrap;overflow=hidden;rotatable=0;points=[[0,0.5],[1,0.5]];portConstraint=eastwest;" vertex="1" parent="hpXlK9H8_quA6gjHTxtj-37">
          <mxGeometry y="212" width="440" height="26" as="geometry" />
        </mxCell>
        <mxCell id="hpXlK9H8_quA6gjHTxtj-57" value="+ getId(): int" style="text;html=1;strokeColor=none;fillColor=none;align=left;verticalAlign=top;spacingLeft=4;spacingRight=4;whiteSpace=wrap;overflow=hidden;rotatable=0;points=[[0,0.5],[1,0.5]];portConstraint=eastwest;" vertex="1" parent="hpXlK9H8_quA6gjHTxtj-37">
          <mxGeometry y="238" width="440" height="26" as="geometry" />
        </mxCell>
        <mxCell id="hpXlK9H8_quA6gjHTxtj-58" value="+ setId(id: int): void" style="text;html=1;strokeColor=none;fillColor=none;align=left;verticalAlign=top;spacingLeft=4;spacingRight=4;whiteSpace=wrap;overflow=hidden;rotatable=0;points=[[0,0.5],[1,0.5]];portConstraint=eastwest;" vertex="1" parent="hpXlK9H8_quA6gjHTxtj-37">
          <mxGeometry y="264" width="440" height="26" as="geometry" />
        </mxCell>
        <mxCell id="hpXlK9H8_quA6gjHTxtj-55" value="+ getStatus(): StatusPlayer" style="text;html=1;strokeColor=none;fillColor=none;align=left;verticalAlign=top;spacingLeft=4;spacingRight=4;whiteSpace=wrap;overflow=hidden;rotatable=0;points=[[0,0.5],[1,0.5]];portConstraint=eastwest;" vertex="1" parent="hpXlK9H8_quA6gjHTxtj-37">
          <mxGeometry y="290" width="440" height="28" as="geometry" />
        </mxCell>
        <mxCell id="hpXlK9H8_quA6gjHTxtj-59" value="+ setStatus(status: StatusPlayer): void" style="text;html=1;strokeColor=none;fillColor=none;align=left;verticalAlign=top;spacingLeft=4;spacingRight=4;whiteSpace=wrap;overflow=hidden;rotatable=0;points=[[0,0.5],[1,0.5]];portConstraint=eastwest;" vertex="1" parent="hpXlK9H8_quA6gjHTxtj-37">
          <mxGeometry y="318" width="440" height="26" as="geometry" />
        </mxCell>
        <mxCell id="hpXlK9H8_quA6gjHTxtj-61" value="+ getName(): String" style="text;html=1;strokeColor=none;fillColor=none;align=left;verticalAlign=top;spacingLeft=4;spacingRight=4;whiteSpace=wrap;overflow=hidden;rotatable=0;points=[[0,0.5],[1,0.5]];portConstraint=eastwest;" vertex="1" parent="hpXlK9H8_quA6gjHTxtj-37">
          <mxGeometry y="344" width="440" height="26" as="geometry" />
        </mxCell>
        <mxCell id="hpXlK9H8_quA6gjHTxtj-63" value="+ setName(name: String): void" style="text;html=1;strokeColor=none;fillColor=none;align=left;verticalAlign=top;spacingLeft=4;spacingRight=4;whiteSpace=wrap;overflow=hidden;rotatable=0;points=[[0,0.5],[1,0.5]];portConstraint=eastwest;" vertex="1" parent="hpXlK9H8_quA6gjHTxtj-37">
          <mxGeometry y="370" width="440" height="26" as="geometry" />
        </mxCell>
        <mxCell id="hpXlK9H8_quA6gjHTxtj-64" value="+ getNickname(): String" style="text;html=1;strokeColor=none;fillColor=none;align=left;verticalAlign=top;spacingLeft=4;spacingRight=4;whiteSpace=wrap;overflow=hidden;rotatable=0;points=[[0,0.5],[1,0.5]];portConstraint=eastwest;" vertex="1" parent="hpXlK9H8_quA6gjHTxtj-37">
          <mxGeometry y="396" width="440" height="26" as="geometry" />
        </mxCell>
        <mxCell id="hpXlK9H8_quA6gjHTxtj-67" value="+ setNickname(nickname: String): void" style="text;html=1;strokeColor=none;fillColor=none;align=left;verticalAlign=top;spacingLeft=4;spacingRight=4;whiteSpace=wrap;overflow=hidden;rotatable=0;points=[[0,0.5],[1,0.5]];portConstraint=eastwest;" vertex="1" parent="hpXlK9H8_quA6gjHTxtj-37">
          <mxGeometry y="422" width="440" height="26" as="geometry" />
        </mxCell>
        <mxCell id="hpXlK9H8_quA6gjHTxtj-66" value="+ getEmail(): String" style="text;html=1;strokeColor=none;fillColor=none;align=left;verticalAlign=top;spacingLeft=4;spacingRight=4;whiteSpace=wrap;overflow=hidden;rotatable=0;points=[[0,0.5],[1,0.5]];portConstraint=eastwest;" vertex="1" parent="hpXlK9H8_quA6gjHTxtj-37">
          <mxGeometry y="448" width="440" height="26" as="geometry" />
        </mxCell>
        <mxCell id="hpXlK9H8_quA6gjHTxtj-65" value="+ setEmail(email: String): void" style="text;html=1;strokeColor=none;fillColor=none;align=left;verticalAlign=top;spacingLeft=4;spacingRight=4;whiteSpace=wrap;overflow=hidden;rotatable=0;points=[[0,0.5],[1,0.5]];portConstraint=eastwest;" vertex="1" parent="hpXlK9H8_quA6gjHTxtj-37">
          <mxGeometry y="474" width="440" height="26" as="geometry" />
        </mxCell>
        <mxCell id="hpXlK9H8_quA6gjHTxtj-62" value="+ getPassword(): String" style="text;html=1;strokeColor=none;fillColor=none;align=left;verticalAlign=top;spacingLeft=4;spacingRight=4;whiteSpace=wrap;overflow=hidden;rotatable=0;points=[[0,0.5],[1,0.5]];portConstraint=eastwest;" vertex="1" parent="hpXlK9H8_quA6gjHTxtj-37">
          <mxGeometry y="500" width="440" height="26" as="geometry" />
        </mxCell>
        <mxCell id="hpXlK9H8_quA6gjHTxtj-69" value="+ setPassword(password: String): void" style="text;html=1;strokeColor=none;fillColor=none;align=left;verticalAlign=top;spacingLeft=4;spacingRight=4;whiteSpace=wrap;overflow=hidden;rotatable=0;points=[[0,0.5],[1,0.5]];portConstraint=eastwest;" vertex="1" parent="hpXlK9H8_quA6gjHTxtj-37">
          <mxGeometry y="526" width="440" height="26" as="geometry" />
        </mxCell>
        <mxCell id="hpXlK9H8_quA6gjHTxtj-70" value="+ toString(): String" style="text;html=1;strokeColor=none;fillColor=none;align=left;verticalAlign=top;spacingLeft=4;spacingRight=4;whiteSpace=wrap;overflow=hidden;rotatable=0;points=[[0,0.5],[1,0.5]];portConstraint=eastwest;" vertex="1" parent="hpXlK9H8_quA6gjHTxtj-37">
          <mxGeometry y="552" width="440" height="48" as="geometry" />
        </mxCell>
        <mxCell id="hpXlK9H8_quA6gjHTxtj-71" value="&lt;b style=&quot;border-color: var(--border-color); font-family: Verdana; font-size: 10px;&quot;&gt;&lt;font style=&quot;border-color: var(--border-color); font-size: 11px;&quot;&gt;Game&lt;/font&gt;&lt;/b&gt;" style="swimlane;fontStyle=1;align=center;verticalAlign=top;childLayout=stackLayout;horizontal=1;startSize=26;horizontalStack=0;resizeParent=1;resizeParentMax=0;resizeLast=0;collapsible=1;marginBottom=0;whiteSpace=wrap;html=1;" vertex="1" parent="1">
          <mxGeometry x="520" y="-440" width="440" height="682" as="geometry" />
        </mxCell>
        <mxCell id="hpXlK9H8_quA6gjHTxtj-72" value="+ id: int&lt;br/&gt;" style="text;html=1;strokeColor=none;fillColor=none;align=left;verticalAlign=top;spacingLeft=4;spacingRight=4;whiteSpace=wrap;overflow=hidden;rotatable=0;points=[[0,0.5],[1,0.5]];portConstraint=eastwest;" vertex="1" parent="hpXlK9H8_quA6gjHTxtj-71">
          <mxGeometry y="26" width="440" height="26" as="geometry" />
        </mxCell>
        <mxCell id="hpXlK9H8_quA6gjHTxtj-73" value="+ status: StatusGame" style="text;html=1;strokeColor=none;fillColor=none;align=left;verticalAlign=top;spacingLeft=4;spacingRight=4;whiteSpace=wrap;overflow=hidden;rotatable=0;points=[[0,0.5],[1,0.5]];portConstraint=eastwest;" vertex="1" parent="hpXlK9H8_quA6gjHTxtj-71">
          <mxGeometry y="52" width="440" height="26" as="geometry" />
        </mxCell>
        <mxCell id="hpXlK9H8_quA6gjHTxtj-74" value="+ player1: Player" style="text;html=1;strokeColor=none;fillColor=none;align=left;verticalAlign=top;spacingLeft=4;spacingRight=4;whiteSpace=wrap;overflow=hidden;rotatable=0;points=[[0,0.5],[1,0.5]];portConstraint=eastwest;" vertex="1" parent="hpXlK9H8_quA6gjHTxtj-71">
          <mxGeometry y="78" width="440" height="26" as="geometry" />
        </mxCell>
        <mxCell id="hpXlK9H8_quA6gjHTxtj-75" value="+ player2: Player" style="text;html=1;strokeColor=none;fillColor=none;align=left;verticalAlign=top;spacingLeft=4;spacingRight=4;whiteSpace=wrap;overflow=hidden;rotatable=0;points=[[0,0.5],[1,0.5]];portConstraint=eastwest;" vertex="1" parent="hpXlK9H8_quA6gjHTxtj-71">
          <mxGeometry y="104" width="440" height="26" as="geometry" />
        </mxCell>
        <mxCell id="hpXlK9H8_quA6gjHTxtj-76" value="+ gameStruct: GameStruct" style="text;html=1;strokeColor=none;fillColor=none;align=left;verticalAlign=top;spacingLeft=4;spacingRight=4;whiteSpace=wrap;overflow=hidden;rotatable=0;points=[[0,0.5],[1,0.5]];portConstraint=eastwest;" vertex="1" parent="hpXlK9H8_quA6gjHTxtj-71">
          <mxGeometry y="130" width="440" height="26" as="geometry" />
        </mxCell>
        <mxCell id="hpXlK9H8_quA6gjHTxtj-77" value="+ gameMoveList: GameMove" style="text;html=1;strokeColor=none;fillColor=none;align=left;verticalAlign=top;spacingLeft=4;spacingRight=4;whiteSpace=wrap;overflow=hidden;rotatable=0;points=[[0,0.5],[1,0.5]];portConstraint=eastwest;" vertex="1" parent="hpXlK9H8_quA6gjHTxtj-71">
          <mxGeometry y="156" width="440" height="26" as="geometry" />
        </mxCell>
        <mxCell id="hpXlK9H8_quA6gjHTxtj-94" value="+ resultGame: ResultGame" style="text;html=1;strokeColor=none;fillColor=none;align=left;verticalAlign=top;spacingLeft=4;spacingRight=4;whiteSpace=wrap;overflow=hidden;rotatable=0;points=[[0,0.5],[1,0.5]];portConstraint=eastwest;" vertex="1" parent="hpXlK9H8_quA6gjHTxtj-71">
          <mxGeometry y="182" width="440" height="26" as="geometry" />
        </mxCell>
        <mxCell id="hpXlK9H8_quA6gjHTxtj-95" value="+ startedGameTime: DateTime" style="text;html=1;strokeColor=none;fillColor=none;align=left;verticalAlign=top;spacingLeft=4;spacingRight=4;whiteSpace=wrap;overflow=hidden;rotatable=0;points=[[0,0.5],[1,0.5]];portConstraint=eastwest;" vertex="1" parent="hpXlK9H8_quA6gjHTxtj-71">
          <mxGeometry y="208" width="440" height="26" as="geometry" />
        </mxCell>
        <mxCell id="hpXlK9H8_quA6gjHTxtj-96" value="+ finishedGameTime: DateTime" style="text;html=1;strokeColor=none;fillColor=none;align=left;verticalAlign=top;spacingLeft=4;spacingRight=4;whiteSpace=wrap;overflow=hidden;rotatable=0;points=[[0,0.5],[1,0.5]];portConstraint=eastwest;" vertex="1" parent="hpXlK9H8_quA6gjHTxtj-71">
          <mxGeometry y="234" width="440" height="26" as="geometry" />
        </mxCell>
        <mxCell id="hpXlK9H8_quA6gjHTxtj-78" value="" style="line;strokeWidth=1;fillColor=none;align=left;verticalAlign=middle;spacingTop=-1;spacingLeft=3;spacingRight=3;rotatable=0;labelPosition=right;points=[];portConstraint=eastwest;strokeColor=inherit;" vertex="1" parent="hpXlK9H8_quA6gjHTxtj-71">
          <mxGeometry y="260" width="440" height="30" as="geometry" />
        </mxCell>
        <mxCell id="hpXlK9H8_quA6gjHTxtj-79" value="+ Game(id: int, player1: Player, player2: Player)&lt;span style=&quot;color: rgb(255, 255, 255); font-family: &amp;quot;Söhne Mono&amp;quot;, Monaco, &amp;quot;Andale Mono&amp;quot;, &amp;quot;Ubuntu Mono&amp;quot;, monospace; font-size: 14px; background-color: rgb(0, 0, 0);&quot;&gt;&lt;br&gt;&lt;/span&gt;" style="text;html=1;strokeColor=none;fillColor=none;align=left;verticalAlign=top;spacingLeft=4;spacingRight=4;whiteSpace=wrap;overflow=hidden;rotatable=0;points=[[0,0.5],[1,0.5]];portConstraint=eastwest;" vertex="1" parent="hpXlK9H8_quA6gjHTxtj-71">
          <mxGeometry y="290" width="440" height="26" as="geometry" />
        </mxCell>
        <mxCell id="hpXlK9H8_quA6gjHTxtj-80" value="+ getId(): int" style="text;html=1;strokeColor=none;fillColor=none;align=left;verticalAlign=top;spacingLeft=4;spacingRight=4;whiteSpace=wrap;overflow=hidden;rotatable=0;points=[[0,0.5],[1,0.5]];portConstraint=eastwest;" vertex="1" parent="hpXlK9H8_quA6gjHTxtj-71">
          <mxGeometry y="316" width="440" height="26" as="geometry" />
        </mxCell>
        <mxCell id="hpXlK9H8_quA6gjHTxtj-81" value="+ setId(id: int): void" style="text;html=1;strokeColor=none;fillColor=none;align=left;verticalAlign=top;spacingLeft=4;spacingRight=4;whiteSpace=wrap;overflow=hidden;rotatable=0;points=[[0,0.5],[1,0.5]];portConstraint=eastwest;" vertex="1" parent="hpXlK9H8_quA6gjHTxtj-71">
          <mxGeometry y="342" width="440" height="26" as="geometry" />
        </mxCell>
        <mxCell id="hpXlK9H8_quA6gjHTxtj-82" value="+ getStatus(): StatusGame" style="text;html=1;strokeColor=none;fillColor=none;align=left;verticalAlign=top;spacingLeft=4;spacingRight=4;whiteSpace=wrap;overflow=hidden;rotatable=0;points=[[0,0.5],[1,0.5]];portConstraint=eastwest;" vertex="1" parent="hpXlK9H8_quA6gjHTxtj-71">
          <mxGeometry y="368" width="440" height="28" as="geometry" />
        </mxCell>
        <mxCell id="hpXlK9H8_quA6gjHTxtj-83" value="+ setStatus(status: StatusGame): void" style="text;html=1;strokeColor=none;fillColor=none;align=left;verticalAlign=top;spacingLeft=4;spacingRight=4;whiteSpace=wrap;overflow=hidden;rotatable=0;points=[[0,0.5],[1,0.5]];portConstraint=eastwest;" vertex="1" parent="hpXlK9H8_quA6gjHTxtj-71">
          <mxGeometry y="396" width="440" height="26" as="geometry" />
        </mxCell>
        <mxCell id="hpXlK9H8_quA6gjHTxtj-84" value="+ getPlayer1(): Player" style="text;html=1;strokeColor=none;fillColor=none;align=left;verticalAlign=top;spacingLeft=4;spacingRight=4;whiteSpace=wrap;overflow=hidden;rotatable=0;points=[[0,0.5],[1,0.5]];portConstraint=eastwest;" vertex="1" parent="hpXlK9H8_quA6gjHTxtj-71">
          <mxGeometry y="422" width="440" height="26" as="geometry" />
        </mxCell>
        <mxCell id="hpXlK9H8_quA6gjHTxtj-85" value="+ setPlayer1(player1: Player): void" style="text;html=1;strokeColor=none;fillColor=none;align=left;verticalAlign=top;spacingLeft=4;spacingRight=4;whiteSpace=wrap;overflow=hidden;rotatable=0;points=[[0,0.5],[1,0.5]];portConstraint=eastwest;" vertex="1" parent="hpXlK9H8_quA6gjHTxtj-71">
          <mxGeometry y="448" width="440" height="26" as="geometry" />
        </mxCell>
        <mxCell id="hpXlK9H8_quA6gjHTxtj-86" value="+ getPlayer2(): Player" style="text;html=1;strokeColor=none;fillColor=none;align=left;verticalAlign=top;spacingLeft=4;spacingRight=4;whiteSpace=wrap;overflow=hidden;rotatable=0;points=[[0,0.5],[1,0.5]];portConstraint=eastwest;" vertex="1" parent="hpXlK9H8_quA6gjHTxtj-71">
          <mxGeometry y="474" width="440" height="26" as="geometry" />
        </mxCell>
        <mxCell id="hpXlK9H8_quA6gjHTxtj-87" value="+ setPlayer2(player2: Player): void" style="text;html=1;strokeColor=none;fillColor=none;align=left;verticalAlign=top;spacingLeft=4;spacingRight=4;whiteSpace=wrap;overflow=hidden;rotatable=0;points=[[0,0.5],[1,0.5]];portConstraint=eastwest;" vertex="1" parent="hpXlK9H8_quA6gjHTxtj-71">
          <mxGeometry y="500" width="440" height="26" as="geometry" />
        </mxCell>
        <mxCell id="hpXlK9H8_quA6gjHTxtj-88" value="+ getGameStruct(): GameStruct" style="text;html=1;strokeColor=none;fillColor=none;align=left;verticalAlign=top;spacingLeft=4;spacingRight=4;whiteSpace=wrap;overflow=hidden;rotatable=0;points=[[0,0.5],[1,0.5]];portConstraint=eastwest;" vertex="1" parent="hpXlK9H8_quA6gjHTxtj-71">
          <mxGeometry y="526" width="440" height="26" as="geometry" />
        </mxCell>
        <mxCell id="hpXlK9H8_quA6gjHTxtj-89" value="+ setGameStruct(gameStruct: GameStruct): void" style="text;html=1;strokeColor=none;fillColor=none;align=left;verticalAlign=top;spacingLeft=4;spacingRight=4;whiteSpace=wrap;overflow=hidden;rotatable=0;points=[[0,0.5],[1,0.5]];portConstraint=eastwest;" vertex="1" parent="hpXlK9H8_quA6gjHTxtj-71">
          <mxGeometry y="552" width="440" height="26" as="geometry" />
        </mxCell>
        <mxCell id="hpXlK9H8_quA6gjHTxtj-90" value="+ addMove(position: int, player: Player): void" style="text;html=1;strokeColor=none;fillColor=none;align=left;verticalAlign=top;spacingLeft=4;spacingRight=4;whiteSpace=wrap;overflow=hidden;rotatable=0;points=[[0,0.5],[1,0.5]];portConstraint=eastwest;" vertex="1" parent="hpXlK9H8_quA6gjHTxtj-71">
          <mxGeometry y="578" width="440" height="26" as="geometry" />
        </mxCell>
        <mxCell id="hpXlK9H8_quA6gjHTxtj-91" value="+ getResult(): ResultGame" style="text;html=1;strokeColor=none;fillColor=none;align=left;verticalAlign=top;spacingLeft=4;spacingRight=4;whiteSpace=wrap;overflow=hidden;rotatable=0;points=[[0,0.5],[1,0.5]];portConstraint=eastwest;" vertex="1" parent="hpXlK9H8_quA6gjHTxtj-71">
          <mxGeometry y="604" width="440" height="26" as="geometry" />
        </mxCell>
        <mxCell id="hpXlK9H8_quA6gjHTxtj-92" value="+ getWinner(): Player" style="text;html=1;strokeColor=none;fillColor=none;align=left;verticalAlign=top;spacingLeft=4;spacingRight=4;whiteSpace=wrap;overflow=hidden;rotatable=0;points=[[0,0.5],[1,0.5]];portConstraint=eastwest;" vertex="1" parent="hpXlK9H8_quA6gjHTxtj-71">
          <mxGeometry y="630" width="440" height="26" as="geometry" />
        </mxCell>
        <mxCell id="hpXlK9H8_quA6gjHTxtj-97" value="+ toString(): String" style="text;html=1;strokeColor=none;fillColor=none;align=left;verticalAlign=top;spacingLeft=4;spacingRight=4;whiteSpace=wrap;overflow=hidden;rotatable=0;points=[[0,0.5],[1,0.5]];portConstraint=eastwest;" vertex="1" parent="hpXlK9H8_quA6gjHTxtj-71">
          <mxGeometry y="656" width="440" height="26" as="geometry" />
        </mxCell>
        <mxCell id="hpXlK9H8_quA6gjHTxtj-98" value="&lt;b style=&quot;border-color: var(--border-color); font-family: Verdana; font-size: 10px;&quot;&gt;&lt;font style=&quot;border-color: var(--border-color); font-size: 11px;&quot;&gt;GameStruct&lt;/font&gt;&lt;/b&gt;" style="swimlane;fontStyle=1;align=center;verticalAlign=top;childLayout=stackLayout;horizontal=1;startSize=26;horizontalStack=0;resizeParent=1;resizeParentMax=0;resizeLast=0;collapsible=1;marginBottom=0;whiteSpace=wrap;html=1;" vertex="1" parent="1">
          <mxGeometry x="40" y="200" width="440" height="280" as="geometry" />
        </mxCell>
        <mxCell id="hpXlK9H8_quA6gjHTxtj-99" value="+ positions: HashMap&amp;lt;Position, Value&amp;gt;" style="text;html=1;strokeColor=none;fillColor=none;align=left;verticalAlign=top;spacingLeft=4;spacingRight=4;whiteSpace=wrap;overflow=hidden;rotatable=0;points=[[0,0.5],[1,0.5]];portConstraint=eastwest;" vertex="1" parent="hpXlK9H8_quA6gjHTxtj-98">
          <mxGeometry y="26" width="440" height="26" as="geometry" />
        </mxCell>
        <mxCell id="hpXlK9H8_quA6gjHTxtj-100" value="+ whoStarted: Player" style="text;html=1;strokeColor=none;fillColor=none;align=left;verticalAlign=top;spacingLeft=4;spacingRight=4;whiteSpace=wrap;overflow=hidden;rotatable=0;points=[[0,0.5],[1,0.5]];portConstraint=eastwest;" vertex="1" parent="hpXlK9H8_quA6gjHTxtj-98">
          <mxGeometry y="52" width="440" height="26" as="geometry" />
        </mxCell>
        <mxCell id="hpXlK9H8_quA6gjHTxtj-101" value="+ currentMove: Player" style="text;html=1;strokeColor=none;fillColor=none;align=left;verticalAlign=top;spacingLeft=4;spacingRight=4;whiteSpace=wrap;overflow=hidden;rotatable=0;points=[[0,0.5],[1,0.5]];portConstraint=eastwest;" vertex="1" parent="hpXlK9H8_quA6gjHTxtj-98">
          <mxGeometry y="78" width="440" height="26" as="geometry" />
        </mxCell>
        <mxCell id="hpXlK9H8_quA6gjHTxtj-108" value="" style="line;strokeWidth=1;fillColor=none;align=left;verticalAlign=middle;spacingTop=-1;spacingLeft=3;spacingRight=3;rotatable=0;labelPosition=right;points=[];portConstraint=eastwest;strokeColor=inherit;" vertex="1" parent="hpXlK9H8_quA6gjHTxtj-98">
          <mxGeometry y="104" width="440" height="30" as="geometry" />
        </mxCell>
        <mxCell id="hpXlK9H8_quA6gjHTxtj-109" value="+ GameStruct()&lt;span style=&quot;color: rgb(255, 255, 255); font-family: &amp;quot;Söhne Mono&amp;quot;, Monaco, &amp;quot;Andale Mono&amp;quot;, &amp;quot;Ubuntu Mono&amp;quot;, monospace; font-size: 14px; background-color: rgb(0, 0, 0);&quot;&gt;&lt;br&gt;&lt;/span&gt;" style="text;html=1;strokeColor=none;fillColor=none;align=left;verticalAlign=top;spacingLeft=4;spacingRight=4;whiteSpace=wrap;overflow=hidden;rotatable=0;points=[[0,0.5],[1,0.5]];portConstraint=eastwest;" vertex="1" parent="hpXlK9H8_quA6gjHTxtj-98">
          <mxGeometry y="134" width="440" height="26" as="geometry" />
        </mxCell>
        <mxCell id="hpXlK9H8_quA6gjHTxtj-110" value="+ getValue(position: Position): Value" style="text;html=1;strokeColor=none;fillColor=none;align=left;verticalAlign=top;spacingLeft=4;spacingRight=4;whiteSpace=wrap;overflow=hidden;rotatable=0;points=[[0,0.5],[1,0.5]];portConstraint=eastwest;" vertex="1" parent="hpXlK9H8_quA6gjHTxtj-98">
          <mxGeometry y="160" width="440" height="26" as="geometry" />
        </mxCell>
        <mxCell id="hpXlK9H8_quA6gjHTxtj-111" value="+ setValue(position: Position, value: Value): void" style="text;html=1;strokeColor=none;fillColor=none;align=left;verticalAlign=top;spacingLeft=4;spacingRight=4;whiteSpace=wrap;overflow=hidden;rotatable=0;points=[[0,0.5],[1,0.5]];portConstraint=eastwest;" vertex="1" parent="hpXlK9H8_quA6gjHTxtj-98">
          <mxGeometry y="186" width="440" height="26" as="geometry" />
        </mxCell>
        <mxCell id="hpXlK9H8_quA6gjHTxtj-112" value="+ isPositionEmpty(position: Position): boolean" style="text;html=1;strokeColor=none;fillColor=none;align=left;verticalAlign=top;spacingLeft=4;spacingRight=4;whiteSpace=wrap;overflow=hidden;rotatable=0;points=[[0,0.5],[1,0.5]];portConstraint=eastwest;" vertex="1" parent="hpXlK9H8_quA6gjHTxtj-98">
          <mxGeometry y="212" width="440" height="28" as="geometry" />
        </mxCell>
        <mxCell id="hpXlK9H8_quA6gjHTxtj-113" value="+ toString(): String" style="text;html=1;strokeColor=none;fillColor=none;align=left;verticalAlign=top;spacingLeft=4;spacingRight=4;whiteSpace=wrap;overflow=hidden;rotatable=0;points=[[0,0.5],[1,0.5]];portConstraint=eastwest;" vertex="1" parent="hpXlK9H8_quA6gjHTxtj-98">
          <mxGeometry y="240" width="440" height="40" as="geometry" />
        </mxCell>
        <mxCell id="hpXlK9H8_quA6gjHTxtj-124" value="&lt;b style=&quot;border-color: var(--border-color); font-family: Verdana; font-size: 11px;&quot;&gt;GameMove&lt;/b&gt;" style="swimlane;fontStyle=1;align=center;verticalAlign=top;childLayout=stackLayout;horizontal=1;startSize=26;horizontalStack=0;resizeParent=1;resizeParentMax=0;resizeLast=0;collapsible=1;marginBottom=0;whiteSpace=wrap;html=1;" vertex="1" parent="1">
          <mxGeometry x="520" y="280" width="440" height="280" as="geometry" />
        </mxCell>
        <mxCell id="hpXlK9H8_quA6gjHTxtj-125" value="+ position: int" style="text;html=1;strokeColor=none;fillColor=none;align=left;verticalAlign=top;spacingLeft=4;spacingRight=4;whiteSpace=wrap;overflow=hidden;rotatable=0;points=[[0,0.5],[1,0.5]];portConstraint=eastwest;" vertex="1" parent="hpXlK9H8_quA6gjHTxtj-124">
          <mxGeometry y="26" width="440" height="26" as="geometry" />
        </mxCell>
        <mxCell id="hpXlK9H8_quA6gjHTxtj-126" value="+ player: Player" style="text;html=1;strokeColor=none;fillColor=none;align=left;verticalAlign=top;spacingLeft=4;spacingRight=4;whiteSpace=wrap;overflow=hidden;rotatable=0;points=[[0,0.5],[1,0.5]];portConstraint=eastwest;" vertex="1" parent="hpXlK9H8_quA6gjHTxtj-124">
          <mxGeometry y="52" width="440" height="26" as="geometry" />
        </mxCell>
        <mxCell id="hpXlK9H8_quA6gjHTxtj-128" value="" style="line;strokeWidth=1;fillColor=none;align=left;verticalAlign=middle;spacingTop=-1;spacingLeft=3;spacingRight=3;rotatable=0;labelPosition=right;points=[];portConstraint=eastwest;strokeColor=inherit;" vertex="1" parent="hpXlK9H8_quA6gjHTxtj-124">
          <mxGeometry y="78" width="440" height="30" as="geometry" />
        </mxCell>
        <mxCell id="hpXlK9H8_quA6gjHTxtj-129" value="+ GameMove(position: int, player: Player)&lt;span style=&quot;color: rgb(255, 255, 255); font-family: &amp;quot;Söhne Mono&amp;quot;, Monaco, &amp;quot;Andale Mono&amp;quot;, &amp;quot;Ubuntu Mono&amp;quot;, monospace; font-size: 14px; background-color: rgb(0, 0, 0);&quot;&gt;&lt;br&gt;&lt;/span&gt;" style="text;html=1;strokeColor=none;fillColor=none;align=left;verticalAlign=top;spacingLeft=4;spacingRight=4;whiteSpace=wrap;overflow=hidden;rotatable=0;points=[[0,0.5],[1,0.5]];portConstraint=eastwest;" vertex="1" parent="hpXlK9H8_quA6gjHTxtj-124">
          <mxGeometry y="108" width="440" height="26" as="geometry" />
        </mxCell>
        <mxCell id="hpXlK9H8_quA6gjHTxtj-130" value="+ getPosition(): int" style="text;html=1;strokeColor=none;fillColor=none;align=left;verticalAlign=top;spacingLeft=4;spacingRight=4;whiteSpace=wrap;overflow=hidden;rotatable=0;points=[[0,0.5],[1,0.5]];portConstraint=eastwest;" vertex="1" parent="hpXlK9H8_quA6gjHTxtj-124">
          <mxGeometry y="134" width="440" height="26" as="geometry" />
        </mxCell>
        <mxCell id="hpXlK9H8_quA6gjHTxtj-131" value="+ setPosition(position: int): void" style="text;html=1;strokeColor=none;fillColor=none;align=left;verticalAlign=top;spacingLeft=4;spacingRight=4;whiteSpace=wrap;overflow=hidden;rotatable=0;points=[[0,0.5],[1,0.5]];portConstraint=eastwest;" vertex="1" parent="hpXlK9H8_quA6gjHTxtj-124">
          <mxGeometry y="160" width="440" height="26" as="geometry" />
        </mxCell>
        <mxCell id="hpXlK9H8_quA6gjHTxtj-132" value="+ getPlayer(): Player" style="text;html=1;strokeColor=none;fillColor=none;align=left;verticalAlign=top;spacingLeft=4;spacingRight=4;whiteSpace=wrap;overflow=hidden;rotatable=0;points=[[0,0.5],[1,0.5]];portConstraint=eastwest;" vertex="1" parent="hpXlK9H8_quA6gjHTxtj-124">
          <mxGeometry y="186" width="440" height="28" as="geometry" />
        </mxCell>
        <mxCell id="hpXlK9H8_quA6gjHTxtj-133" value="+ setPlayer(player: Player): void" style="text;html=1;strokeColor=none;fillColor=none;align=left;verticalAlign=top;spacingLeft=4;spacingRight=4;whiteSpace=wrap;overflow=hidden;rotatable=0;points=[[0,0.5],[1,0.5]];portConstraint=eastwest;" vertex="1" parent="hpXlK9H8_quA6gjHTxtj-124">
          <mxGeometry y="214" width="440" height="26" as="geometry" />
        </mxCell>
        <mxCell id="hpXlK9H8_quA6gjHTxtj-134" value="+ toString(): String" style="text;html=1;strokeColor=none;fillColor=none;align=left;verticalAlign=top;spacingLeft=4;spacingRight=4;whiteSpace=wrap;overflow=hidden;rotatable=0;points=[[0,0.5],[1,0.5]];portConstraint=eastwest;" vertex="1" parent="hpXlK9H8_quA6gjHTxtj-124">
          <mxGeometry y="240" width="440" height="40" as="geometry" />
        </mxCell>
      </root>
    </mxGraphModel>
  </diagram>
</mxfile>
